<svg version="1.1" id="Layer_1" xmlns="http://www.w3.org/2000/svg" xmlns:xlink="http://www.w3.org/1999/xlink" x="0px" y="0px"
	 width="100%" viewBox="0 0 1203 378" enable-background="new 0 0 1203 378" xml:space="preserve">
<path fill="#000000" opacity="1.000000" stroke="none" 
	d="
M192.000000,1.000003 
	C529.279785,1.000000 866.559570,1.000000 1203.919678,1.000000 
	C1203.919678,126.926384 1203.919678,252.852844 1203.919678,378.889648 
	C803.000000,378.889648 402.000000,378.889648 1.000000,378.889648 
	C1.000000,362.914337 1.000000,346.916870 1.298145,330.171875 
	C3.691343,332.081543 5.367839,335.272125 7.954905,337.302368 
	C18.395304,345.495636 30.749163,350.108826 43.430630,352.765228 
	C61.949581,356.644440 80.722015,359.527618 99.507866,361.854736 
	C116.247192,363.928375 133.148743,365.731537 149.983597,365.775665 
	C183.638474,365.863922 217.298965,364.758453 250.951752,363.927399 
	C258.296173,363.746033 265.665070,362.968903 272.939453,361.899811 
	C284.627625,360.182007 296.254578,358.038116 307.892670,355.990692 
	C323.785278,353.194763 339.271973,349.127289 353.464661,341.104065 
	C361.522461,336.548889 365.886536,330.230011 366.180298,320.421753 
	C366.647949,304.806458 362.607635,290.209045 358.197571,275.585175 
	C349.748871,247.568924 337.969543,220.871735 325.098328,194.698395 
	C314.608948,173.368408 303.600494,152.246643 291.770874,131.635986 
	C279.849213,110.865028 267.116241,90.514122 253.813019,70.597496 
	C244.735489,57.007252 234.156876,44.409702 224.084702,31.496784 
	C215.417358,20.384912 205.609009,10.442621 193.431808,3.072163 
	C192.776535,2.675538 192.469269,1.703947 192.000000,1.000003 
M582.193054,107.998512 
	C579.650452,109.557655 575.891418,109.735764 575.969238,114.126755 
	C576.127991,123.082939 576.111206,132.042236 575.726868,141.776443 
	C570.948730,141.776443 566.170593,141.776443 561.200928,141.776443 
	C561.200928,147.792633 561.200928,153.195389 561.200928,158.994812 
	C566.120789,158.994812 570.869324,158.994812 576.000427,158.994812 
	C576.000427,160.992111 576.000427,162.618805 576.000427,164.245483 
	C576.000427,188.560150 575.951904,212.875015 576.046204,237.189316 
	C576.062683,241.436707 576.295898,245.757446 577.113342,249.909607 
	C578.258423,255.726242 580.916809,260.568146 586.236084,264.140564 
	C595.137024,270.118347 604.933777,269.604950 614.579651,268.542084 
	C621.932800,267.731903 621.843811,266.935089 621.005249,258.844177 
	C620.971069,258.514618 621.022705,258.176666 620.996277,257.845673 
	C620.211731,248.000931 620.209778,247.911758 610.078552,248.045380 
	C606.150146,248.097183 602.101685,248.112534 600.075378,244.317276 
	C598.707275,241.754944 598.103760,238.498459 598.085144,235.546646 
	C597.933350,211.399460 597.999573,187.250916 597.999573,163.102783 
	C597.999573,161.829803 597.999573,160.556839 597.999573,158.895111 
	C605.236694,158.895111 611.980774,158.895111 618.750183,158.895111 
	C618.750183,153.093445 618.750183,147.690430 618.750183,141.957748 
	C611.707336,141.957748 604.910950,141.957748 598.008057,141.031143 
	C598.005371,139.701004 598.000427,138.370850 598.000366,137.040710 
	C597.999634,126.399460 597.900452,115.756691 598.062134,105.117897 
	C598.108948,102.038811 596.455933,99.758148 594.110596,100.738380 
	C590.076965,102.424217 586.610229,105.466606 582.986511,107.983749 
	C582.986511,107.983749 582.941772,107.903168 582.193054,107.998512 
M432.283020,103.995049 
	C431.483917,104.649216 430.684814,105.303383 429.307190,106.154251 
	C428.523956,107.064766 427.740692,107.975281 426.320496,109.143188 
	C410.608398,124.595161 408.778137,152.437607 426.310516,168.719269 
	C440.246094,181.660736 458.226471,185.108948 476.560638,189.053604 
	C477.043976,189.313522 477.527283,189.573441 478.819672,189.988449 
	C480.367126,190.326508 481.938446,190.581238 483.458282,191.015884 
	C495.180450,194.368134 507.280151,196.834717 516.988281,205.012314 
	C516.988281,205.012314 516.905823,205.060654 517.187561,205.732178 
	C527.844849,221.081818 520.095947,238.367401 503.939484,244.599396 
	C489.595398,250.132294 475.213928,250.441177 460.516632,246.178070 
	C450.376221,243.236755 441.274933,238.579056 436.011230,229.216705 
	C432.727966,223.376953 431.183777,216.559448 428.793335,210.000046 
	C426.501434,210.000046 423.830322,209.870071 421.177673,210.035904 
	C418.419128,210.208389 415.677002,210.946503 412.930267,210.932526 
	C409.092010,210.913025 407.222107,210.622925 407.717743,216.305954 
	C409.724731,239.316544 424.813507,257.741058 446.257751,265.108002 
	C462.121307,270.557770 478.210541,270.969849 494.613739,269.032318 
	C510.862732,267.113007 524.804138,260.542084 534.756897,247.508621 
	C544.218628,235.118134 547.936157,221.059372 543.082886,205.495926 
	C537.019836,186.053162 521.807251,177.317108 503.844330,172.061813 
	C486.911469,167.107880 469.776764,162.845779 452.826996,157.946777 
	C443.189575,155.161270 437.577332,148.038193 436.893036,140.514389 
	C436.021301,130.928986 442.085419,121.422127 452.256989,116.861862 
	C462.594330,112.227257 473.409576,112.557487 484.109711,113.198486 
	C492.633545,113.709114 501.017273,116.159103 507.252716,122.794792 
	C511.860901,127.698700 515.109802,133.354111 516.023743,140.192535 
	C516.661987,144.968430 517.333252,145.520782 521.693420,145.007294 
	C522.128845,144.949265 522.564209,144.891235 523.847839,144.987549 
	C526.603333,144.936111 529.358887,144.884674 532.951904,144.967056 
	C533.967773,144.589142 534.983643,144.211212 536.734863,143.987396 
	C540.082825,144.155045 539.067261,141.742538 539.007202,139.306366 
	C538.949219,138.871048 538.891235,138.435715 538.987854,137.163559 
	C537.897583,126.316772 533.264954,116.998520 525.741028,109.378502 
	C514.007019,97.494728 498.830902,93.234314 482.764221,92.146828 
	C475.091187,91.627464 467.207764,91.991219 459.608307,93.170624 
	C450.011383,94.660027 440.423645,96.942879 432.987640,103.985138 
	C432.987640,103.985138 432.941772,103.903091 432.283020,103.995049 
M641.925232,267.988129 
	C647.616638,267.936554 653.308105,267.884979 659.870850,267.971069 
	C660.191650,262.980621 660.512451,257.990204 660.986938,252.339172 
	C660.935669,251.892914 660.884460,251.446640 660.988281,250.075104 
	C660.936584,244.049988 660.884949,238.024872 660.986938,231.339172 
	C660.935669,230.892914 660.884460,230.446640 660.988281,229.074371 
	C661.269958,216.382828 661.551636,203.691299 661.987732,190.219070 
	C662.029724,189.160355 662.071655,188.101654 662.828064,186.669861 
	C663.816772,176.731628 666.895020,168.110916 676.868958,163.587524 
	C684.015198,160.346512 690.801331,162.312027 697.317993,165.161758 
	C700.333618,166.480469 701.157837,166.128036 701.697937,162.828949 
	C701.836487,162.233612 701.975037,161.638275 702.776001,160.740005 
	C703.128418,159.159866 703.480774,157.579727 704.094666,155.381302 
	C704.434265,154.601868 704.773926,153.822433 705.781311,152.733459 
	C706.674500,145.963547 706.982788,144.977234 700.229004,142.724579 
	C695.904724,141.282288 691.415222,140.335632 686.339172,139.013138 
	C685.892944,139.064346 685.446655,139.115540 684.198608,139.012253 
	C676.792664,140.482803 669.886292,142.789215 665.414246,150.071274 
	C665.109131,150.257111 664.956909,150.528656 664.300476,151.160248 
	C662.680298,153.625000 661.060120,156.089737 658.976196,159.259933 
	C658.976196,153.130142 658.976196,147.758606 658.976196,142.363388 
	C652.088196,142.363388 645.572327,142.363388 639.000000,142.363388 
	C639.000000,182.982849 638.979187,223.239059 639.084290,263.494965 
	C639.088074,264.942780 640.333801,266.387329 641.925232,267.988129 
M728.312805,157.172165 
	C717.431091,169.385345 712.786194,183.804169 712.782043,200.768005 
	C710.599670,210.280807 712.889709,219.530716 715.129944,228.574753 
	C719.241760,245.173965 729.110718,257.712524 744.751282,264.848236 
	C757.338806,270.591095 770.723938,271.111420 784.406433,269.098328 
	C801.886353,266.526581 814.363525,257.277466 822.494263,241.953995 
	C828.094360,231.399796 826.103638,228.315521 813.652161,227.159897 
	C810.765686,227.000107 807.879211,226.840302 804.710693,226.664902 
	C803.621460,229.051117 802.519897,231.691376 801.234192,234.238739 
	C797.265259,242.102646 790.831177,247.298401 782.091309,250.992615 
	C780.927002,251.012161 779.692627,250.783920 778.609436,251.090256 
	C769.576721,253.644821 761.143372,251.513626 753.560486,246.873901 
	C740.461060,238.858810 736.600647,225.674713 734.925293,211.000046 
	C737.051147,211.000046 738.852783,211.003052 740.654480,210.999573 
	C769.102844,210.944641 797.551270,210.888885 826.872009,210.970840 
	C827.247925,209.876007 827.980225,208.767868 827.939819,207.688614 
	C827.737671,202.280869 827.470886,196.867966 826.972656,191.480362 
	C825.752075,178.281601 820.920776,166.572830 812.091370,156.606094 
	C801.705566,144.882462 788.261414,139.979034 772.257812,139.012268 
	C771.505310,139.063751 770.752808,139.115250 769.142090,139.011826 
	C761.038391,140.889145 752.565308,141.858658 744.957520,144.954529 
	C739.652710,147.113281 735.533875,152.186554 730.335510,156.130325 
	C729.890625,156.475861 729.445679,156.821396 728.312805,157.172165 
M953.978882,172.186951 
	C953.652832,171.126236 953.128845,170.083084 953.032898,169.001968 
	C952.426514,162.165970 949.838379,156.329926 944.954163,151.415985 
	C935.183533,141.585892 922.488525,139.811020 909.726685,139.193176 
	C901.975403,138.817917 893.976685,139.601974 886.368896,141.198441 
	C876.476135,143.274368 866.764282,146.489792 859.308716,155.153152 
	C856.200500,161.381149 853.101196,167.613632 849.981140,173.835678 
	C847.661438,178.461594 849.818848,179.453201 854.830872,178.998962 
	C860.084473,179.807098 865.338074,180.615250 870.589294,181.423035 
	C873.100281,170.836960 877.245300,162.180054 888.064941,159.516693 
	C898.013306,157.067780 908.169861,156.821365 918.037048,160.086395 
	C924.283447,162.153305 929.147217,166.349655 930.791565,172.864136 
	C931.975098,177.553513 931.876160,182.566559 932.360901,187.555145 
	C930.159668,188.126572 928.495544,188.684280 926.786133,188.982681 
	C911.327637,191.681213 895.845520,194.247101 880.400940,197.022079 
	C859.331055,200.807755 841.177002,216.449890 846.014343,241.600098 
	C848.422485,254.120514 856.147522,262.147003 867.652771,267.031097 
	C876.272339,270.690155 885.319458,270.244568 894.287903,269.916077 
	C903.068054,269.594452 911.417847,267.237671 918.968811,262.529297 
	C923.877625,259.468445 928.765442,256.373932 933.461304,253.421082 
	C934.570679,257.093628 935.705322,260.738220 936.767578,264.403809 
	C937.533936,267.048309 938.881836,268.299469 941.965881,268.089172 
	C947.439514,267.715973 952.950317,267.888916 959.203186,267.958374 
	C959.471619,266.999054 960.181946,265.896515 959.926025,265.107147 
	C959.142822,262.690796 957.443420,260.476501 957.077515,258.037079 
	C955.826233,249.696213 954.329285,241.308197 954.132629,232.909912 
	C953.665283,212.948471 953.888794,192.970840 953.978882,172.186951 
M1076.383667,268.000061 
	C1077.825317,268.000061 1079.266846,268.000061 1080.999756,268.000061 
	C1080.999756,265.873840 1080.999756,264.239807 1080.999756,262.605743 
	C1080.999756,239.943970 1080.750977,217.277725 1081.156006,194.623184 
	C1081.272827,188.087173 1082.037231,181.030029 1084.665283,175.182877 
	C1090.096191,163.099579 1100.420044,158.190735 1113.707031,158.916595 
	C1121.954224,159.367111 1128.584839,163.512909 1130.904663,171.383087 
	C1132.081177,175.374405 1132.882690,179.635071 1132.910522,183.780273 
	C1133.087158,210.106766 1133.000244,236.434998 1133.000244,262.762665 
	C1133.000244,264.382874 1133.000244,266.003082 1133.000244,268.000092 
	C1136.521606,268.000092 1139.647095,268.000061 1142.772583,268.000061 
	C1154.999756,268.000061 1155.097412,267.999176 1154.980225,255.680237 
	C1154.708496,227.106781 1154.528198,198.529846 1153.875366,169.964264 
	C1153.690308,161.867996 1150.327881,154.124908 1144.166748,148.960968 
	C1132.674805,139.328720 1119.205933,137.006531 1104.567993,140.808456 
	C1093.090332,143.789612 1084.769775,150.881470 1077.907715,160.351685 
	C1066.784424,132.861862 1024.207031,132.275482 1004.845581,158.289444 
	C1004.845581,152.378296 1004.845581,147.204071 1004.845581,142.365280 
	C997.863098,142.365280 991.452209,142.365280 985.000427,142.365280 
	C985.000427,182.887131 985.000366,223.044174 985.000366,263.201233 
	C985.000366,263.701141 984.791565,264.378571 985.038208,264.669830 
	C986.033081,265.844269 987.122620,267.791382 988.259888,267.850037 
	C994.364563,268.165009 1000.494080,267.998810 1006.999634,267.998810 
	C1006.999634,253.318878 1006.739624,239.027786 1007.074036,224.750595 
	C1007.398071,210.919083 1007.820068,197.050598 1009.194336,183.297806 
	C1010.006104,175.173737 1013.753601,167.868698 1021.258972,163.293503 
	C1027.325317,159.595535 1033.892212,158.558609 1040.922241,158.929901 
	C1047.365845,159.270248 1052.486450,161.785645 1054.982178,167.654831 
	C1056.954224,172.292404 1058.756836,177.434174 1058.825317,182.377121 
	C1059.195190,209.032913 1059.084351,235.697067 1058.913818,262.356903 
	C1058.886719,266.585876 1059.809448,268.543274 1064.415283,268.074310 
	C1068.043579,267.704926 1071.739502,268.000092 1076.383667,268.000061 
z"/>
<path fill="#F9F9F9" opacity="1.000000" stroke="none" 
	d="
M191.532379,1.000003 
	C192.469269,1.703947 192.776535,2.675538 193.431808,3.072163 
	C205.609009,10.442621 215.417358,20.384912 224.084702,31.496784 
	C234.156876,44.409702 244.735489,57.007252 253.813019,70.597496 
	C267.116241,90.514122 279.849213,110.865028 291.770874,131.635986 
	C303.600494,152.246643 314.608948,173.368408 325.098328,194.698395 
	C337.969543,220.871735 349.748871,247.568924 358.197571,275.585175 
	C362.607635,290.209045 366.647949,304.806458 366.180298,320.421753 
	C365.886536,330.230011 361.522461,336.548889 353.464661,341.104065 
	C339.271973,349.127289 323.785278,353.194763 307.892670,355.990692 
	C296.254578,358.038116 284.627625,360.182007 272.939453,361.899811 
	C265.665070,362.968903 258.296173,363.746033 250.951752,363.927399 
	C217.298965,364.758453 183.638474,365.863922 149.983597,365.775665 
	C133.148743,365.731537 116.247192,363.928375 99.507866,361.854736 
	C80.722015,359.527618 61.949581,356.644440 43.430630,352.765228 
	C30.749163,350.108826 18.395304,345.495636 7.954905,337.302368 
	C5.367839,335.272125 3.691343,332.081543 1.298145,329.712158 
	C1.000000,319.979095 1.000000,309.958221 1.350635,299.767273 
	C2.054154,299.250153 2.613467,298.961121 2.729804,298.547485 
	C5.851957,287.447876 8.113592,276.026276 12.185950,265.290802 
	C20.182856,244.209473 28.406317,223.144318 37.975849,202.748016 
	C48.538265,180.235489 60.373348,158.293564 72.306503,136.459686 
	C80.696388,121.108864 89.834732,106.135574 99.253868,91.386452 
	C112.214729,71.091431 125.719856,51.169125 141.502182,32.854736 
	C151.220825,21.576866 160.934570,10.466908 174.038773,2.933111 
	C174.558029,2.634591 174.688416,1.659728 175.000000,1.000000 
	C180.354935,1.000000 185.709854,1.000000 191.532379,1.000003 
M119.532021,148.973663 
	C111.809517,163.046692 103.787094,176.965073 96.433205,191.228149 
	C84.734306,213.918533 73.944359,237.044571 67.633789,261.928864 
	C66.016708,268.305389 64.843681,274.885864 64.371849,281.437866 
	C63.811649,289.216797 69.855957,295.158142 80.481895,299.028473 
	C93.759750,303.864655 107.414841,306.797760 121.479034,308.028900 
	C135.655502,309.269836 149.795670,311.343750 163.992828,311.815033 
	C178.882751,312.309296 193.853271,311.827576 208.730576,310.870575 
	C226.010300,309.759033 243.277023,308.058960 260.453583,305.864410 
	C272.090424,304.377625 283.398804,301.103363 293.929504,295.601807 
	C300.055847,292.401184 303.633575,286.997070 302.754944,280.587799 
	C301.364075,270.441925 299.161865,260.257629 295.917603,250.552689 
	C291.711029,237.968872 286.834808,225.502518 281.014069,213.587875 
	C270.439484,191.942444 259.665131,170.331375 247.624222,149.485703 
	C238.133057,133.054230 226.844925,117.631874 215.911423,102.072968 
	C209.147842,92.448044 201.491699,83.526558 191.471237,76.884911 
	C186.248154,73.423004 181.228073,72.870758 176.154160,76.424156 
	C172.297745,79.124886 168.314896,81.919624 165.254379,85.428055 
	C157.657745,94.136475 150.063873,102.927147 143.382111,112.333488 
	C135.095963,123.998398 127.730164,136.317062 119.532021,148.973663 
z"/>
<path fill="#000000" opacity="1.000000" stroke="none" 
	d="
M174.531342,1.000000 
	C174.688416,1.659728 174.558029,2.634591 174.038773,2.933111 
	C160.934570,10.466908 151.220825,21.576866 141.502182,32.854736 
	C125.719856,51.169125 112.214729,71.091431 99.253868,91.386452 
	C89.834732,106.135574 80.696388,121.108864 72.306503,136.459686 
	C60.373348,158.293564 48.538265,180.235489 37.975849,202.748016 
	C28.406317,223.144318 20.182856,244.209473 12.185950,265.290802 
	C8.113592,276.026276 5.851957,287.447876 2.729804,298.547485 
	C2.613467,298.961121 2.054154,299.250153 1.350635,299.298615 
	C1.000000,199.758789 1.000000,100.517578 1.000000,1.000000 
	C58.687267,1.000000 116.374977,1.000000 174.531342,1.000000 
z"/>
<path fill="#FFFFFF" opacity="1.000000" stroke="none" 
	d="
M1075.894531,268.000061 
	C1071.739502,268.000092 1068.043579,267.704926 1064.415283,268.074310 
	C1059.809448,268.543274 1058.886719,266.585876 1058.913818,262.356903 
	C1059.084351,235.697067 1059.195190,209.032913 1058.825317,182.377121 
	C1058.756836,177.434174 1056.954224,172.292404 1054.982178,167.654831 
	C1052.486450,161.785645 1047.365845,159.270248 1040.922241,158.929901 
	C1033.892212,158.558609 1027.325317,159.595535 1021.258972,163.293503 
	C1013.753601,167.868698 1010.006104,175.173737 1009.194336,183.297806 
	C1007.820068,197.050598 1007.398071,210.919083 1007.074036,224.750595 
	C1006.739624,239.027786 1006.999634,253.318878 1006.999634,267.998810 
	C1000.494080,267.998810 994.364563,268.165009 988.259888,267.850037 
	C987.122620,267.791382 986.033081,265.844269 985.038208,264.669830 
	C984.791565,264.378571 985.000366,263.701141 985.000366,263.201233 
	C985.000366,223.044174 985.000427,182.887131 985.000427,142.365280 
	C991.452209,142.365280 997.863098,142.365280 1004.845581,142.365280 
	C1004.845581,147.204071 1004.845581,152.378296 1004.845581,158.289444 
	C1024.207031,132.275482 1066.784424,132.861862 1077.907715,160.351685 
	C1084.769775,150.881470 1093.090332,143.789612 1104.567993,140.808456 
	C1119.205933,137.006531 1132.674805,139.328720 1144.166748,148.960968 
	C1150.327881,154.124908 1153.690308,161.867996 1153.875366,169.964264 
	C1154.528198,198.529846 1154.708496,227.106781 1154.980225,255.680237 
	C1155.097412,267.999176 1154.999756,268.000061 1142.772583,268.000061 
	C1139.647095,268.000061 1136.521606,268.000092 1133.000244,268.000092 
	C1133.000244,266.003082 1133.000244,264.382874 1133.000244,262.762665 
	C1133.000244,236.434998 1133.087158,210.106766 1132.910522,183.780273 
	C1132.882690,179.635071 1132.081177,175.374405 1130.904663,171.383087 
	C1128.584839,163.512909 1121.954224,159.367111 1113.707031,158.916595 
	C1100.420044,158.190735 1090.096191,163.099579 1084.665283,175.182877 
	C1082.037231,181.030029 1081.272827,188.087173 1081.156006,194.623184 
	C1080.750977,217.277725 1080.999756,239.943970 1080.999756,262.605743 
	C1080.999756,264.239807 1080.999756,265.873840 1080.999756,268.000061 
	C1079.266846,268.000061 1077.825317,268.000061 1075.894531,268.000061 
z"/>
<path fill="#FFFFFF" opacity="1.000000" stroke="none" 
	d="
M538.833252,138.000397 
	C538.891235,138.435715 538.949219,138.871048 538.724854,139.681488 
	C537.628174,141.315521 536.813843,142.574402 535.999512,143.833298 
	C534.983643,144.211212 533.967773,144.589142 532.424866,144.523880 
	C528.652039,141.024155 525.762268,142.176834 522.999634,144.833206 
	C522.564209,144.891235 522.128845,144.949265 521.304810,144.698700 
	C519.959351,142.689194 518.383301,141.071136 518.143005,139.274414 
	C516.085632,123.892014 503.160095,112.727005 487.688782,111.149841 
	C479.275726,110.292206 470.580078,110.121506 462.232239,111.258667 
	C452.697876,112.557465 443.811493,115.806633 438.147308,125.095894 
	C430.798248,137.148438 434.726685,153.603592 447.377716,158.117355 
	C456.372040,161.326447 465.453827,164.329437 474.613403,167.027817 
	C490.429932,171.687363 507.033600,173.706085 521.663147,182.245499 
	C538.642822,192.156784 545.558838,211.576843 540.863342,229.429276 
	C536.406311,246.375458 525.042419,257.612061 508.338013,262.941895 
	C501.441467,265.142365 494.267517,267.379913 487.133545,267.704010 
	C477.873016,268.124634 468.494995,266.941895 459.224640,265.927460 
	C446.065826,264.487457 434.551178,258.579651 425.371094,249.497894 
	C415.909607,240.137772 410.609131,228.233185 410.592255,213.762405 
	C414.802856,213.236725 418.953949,212.293991 423.094299,212.339081 
	C426.268677,212.373672 428.487915,213.858414 429.200684,217.989700 
	C431.193726,229.540802 437.114563,238.687057 448.243744,243.563019 
	C452.744415,245.534851 457.582642,246.725845 462.127747,248.608841 
	C471.334930,252.423264 480.724609,252.842865 490.417725,251.046143 
	C506.255188,248.110504 519.466370,242.524216 523.980530,224.641388 
	C525.814636,217.375336 523.182556,212.038208 520.400635,206.287460 
	C520.019409,205.499405 518.108521,205.451324 516.905823,205.060654 
	C516.905823,205.060654 516.988281,205.012314 516.977173,204.678284 
	C515.654663,202.571747 514.708008,199.849945 512.971802,199.182724 
	C502.677826,195.226715 492.224365,191.675735 481.746338,188.225967 
	C480.782043,187.908493 479.268890,189.257935 478.010620,189.833344 
	C477.527283,189.573441 477.043976,189.313522 476.227722,188.587433 
	C474.439941,187.188690 473.100830,185.863312 471.509369,185.394592 
	C465.961792,183.760727 460.268921,182.614502 454.736298,180.936554 
	C439.495117,176.314117 425.048126,170.197830 419.414154,153.553833 
	C415.196045,141.092560 414.959015,128.612244 423.172302,117.124229 
	C424.898315,114.710022 425.719391,111.648857 426.957458,108.885803 
	C427.740692,107.975281 428.523956,107.064766 429.964874,106.062256 
	C431.395630,105.281189 432.168701,104.592133 432.941772,103.903084 
	C432.941772,103.903091 432.987640,103.985138 433.349762,103.978996 
	C435.295868,103.577271 436.942444,103.342873 438.452209,102.756264 
	C443.216919,100.904922 447.782196,97.946274 452.695618,97.199852 
	C461.881134,95.804459 471.272125,95.001579 480.549164,95.211182 
	C487.840851,95.375931 495.363220,96.585442 502.303955,98.819489 
	C519.799072,104.450661 532.273010,115.374321 536.118042,134.328506 
	C536.392334,135.680420 537.899353,136.782272 538.833252,138.000397 
z"/>
<path fill="#FFFFFF" opacity="1.000000" stroke="none" 
	d="
M859.957458,154.885849 
	C866.764282,146.489792 876.476135,143.274368 886.368896,141.198441 
	C893.976685,139.601974 901.975403,138.817917 909.726685,139.193176 
	C922.488525,139.811020 935.183533,141.585892 944.954163,151.415985 
	C949.838379,156.329926 952.426514,162.165970 953.032898,169.001968 
	C953.128845,170.083084 953.652832,171.126236 953.522705,172.700073 
	C952.710999,174.904190 952.054260,176.593826 952.046631,178.286407 
	C951.969910,195.227417 951.659119,212.177979 952.109680,229.107346 
	C952.459229,242.237701 951.728516,255.686127 958.445618,267.833374 
	C952.950317,267.888916 947.439514,267.715973 941.965881,268.089172 
	C938.881836,268.299469 937.533936,267.048309 936.767578,264.403809 
	C935.705322,260.738220 934.570679,257.093628 933.461304,253.421082 
	C928.765442,256.373932 923.877625,259.468445 918.968811,262.529297 
	C911.417847,267.237671 903.068054,269.594452 894.287903,269.916077 
	C885.319458,270.244568 876.272339,270.690155 867.652771,267.031097 
	C856.147522,262.147003 848.422485,254.120514 846.014343,241.600098 
	C841.177002,216.449890 859.331055,200.807755 880.400940,197.022079 
	C895.845520,194.247101 911.327637,191.681213 926.786133,188.982681 
	C928.495544,188.684280 930.159668,188.126572 932.360901,187.555145 
	C931.876160,182.566559 931.975098,177.553513 930.791565,172.864136 
	C929.147217,166.349655 924.283447,162.153305 918.037048,160.086395 
	C908.169861,156.821365 898.013306,157.067780 888.064941,159.516693 
	C877.245300,162.180054 873.100281,170.836960 870.589294,181.423035 
	C865.338074,180.615250 860.084473,179.807098 854.366943,178.564514 
	C850.203918,173.673782 853.816772,169.831360 855.122803,165.928558 
	C856.392822,162.133362 858.319275,158.557831 859.957458,154.885849 
M875.086548,248.612854 
	C876.404541,249.748718 877.542175,251.318909 879.068604,251.952988 
	C893.551025,257.968872 907.044617,254.519684 919.558716,246.602676 
	C922.774597,244.568115 927.530273,242.391251 927.005554,236.128357 
	C931.967529,226.416092 932.339478,216.010864 931.881592,205.372910 
	C928.710205,206.296051 925.823792,207.348816 922.847168,207.966034 
	C909.605408,210.711731 896.238098,212.936340 883.138306,216.232285 
	C879.028259,217.266388 874.411682,220.268646 872.116150,223.748276 
	C866.405518,232.404770 867.765808,239.463287 875.086548,248.612854 
z"/>
<path fill="#FFFFFF" opacity="1.000000" stroke="none" 
	d="
M825.999634,210.833313 
	C797.551270,210.888885 769.102844,210.944641 740.654480,210.999573 
	C738.852783,211.003052 737.051147,211.000046 734.925293,211.000046 
	C736.600647,225.674713 740.461060,238.858810 753.560486,246.873901 
	C761.143372,251.513626 769.576721,253.644821 778.609436,251.090256 
	C779.692627,250.783920 780.927002,251.012161 782.730957,251.223297 
	C791.032349,250.765991 796.685730,246.625961 800.099121,240.138275 
	C803.287903,234.077606 806.062073,228.207947 814.042969,227.886169 
	C826.103638,228.315521 828.094360,231.399796 822.494263,241.953995 
	C814.363525,257.277466 801.886353,266.526581 784.406433,269.098328 
	C770.723938,271.111420 757.338806,270.591095 744.751282,264.848236 
	C729.110718,257.712524 719.241760,245.173965 715.129944,228.574753 
	C712.889709,219.530716 710.599670,210.280807 713.337769,200.303452 
	C714.595642,197.751968 715.764648,195.698944 715.919128,193.572220 
	C716.590027,184.336670 718.656189,175.606964 723.585083,167.621964 
	C725.640808,164.291580 727.210205,160.661011 729.000732,157.166931 
	C729.445679,156.821396 729.890625,156.475861 730.968201,156.024796 
	C732.058960,155.744507 732.586121,155.662674 732.965027,155.381287 
	C741.509277,149.035736 750.589355,144.081451 761.449768,142.789581 
	C764.401794,142.438416 767.155579,140.419952 770.000305,139.166718 
	C770.752808,139.115250 771.505310,139.063751 772.700195,139.437042 
	C775.826172,140.909637 778.458618,142.678024 781.202881,142.873001 
	C790.198059,143.512131 798.169617,147.366745 804.675232,152.638214 
	C814.363708,160.488800 820.743896,171.264282 822.912537,183.798553 
	C824.456238,192.721115 825.006165,201.815582 825.999634,210.833313 
M799.973511,172.359055 
	C799.282166,170.716690 798.937561,168.784897 797.845642,167.476791 
	C786.976929,154.454727 771.946594,152.998474 758.303955,157.656479 
	C745.939514,161.878098 737.773621,171.143799 735.407288,184.510178 
	C735.040771,186.580368 735.850281,188.858734 736.402039,191.863724 
	C759.092896,191.863724 781.783752,191.863724 804.465759,191.863724 
	C804.357239,190.824692 804.261963,189.912537 804.870972,188.832993 
	C806.326660,185.193253 804.127686,177.584152 800.316650,174.843552 
	C800.196899,174.267090 800.077209,173.690613 799.973511,172.359055 
z"/>
<path fill="#FFFFFF" opacity="1.000000" stroke="none" 
	d="
M598.114624,141.957733 
	C604.910950,141.957748 611.707336,141.957748 618.750183,141.957748 
	C618.750183,147.690430 618.750183,153.093445 618.750183,158.895111 
	C611.980774,158.895111 605.236694,158.895111 597.999573,158.895111 
	C597.999573,160.556839 597.999573,161.829803 597.999573,163.102783 
	C597.999573,187.250916 597.933350,211.399460 598.085144,235.546646 
	C598.103760,238.498459 598.707275,241.754944 600.075378,244.317276 
	C602.101685,248.112534 606.150146,248.097183 610.078552,248.045380 
	C620.209778,247.911758 620.211731,248.000931 620.996277,257.845673 
	C621.022705,258.176666 620.971069,258.514618 621.005249,258.844177 
	C621.843811,266.935089 621.932800,267.731903 614.579651,268.542084 
	C604.933777,269.604950 595.137024,270.118347 586.236084,264.140564 
	C580.916809,260.568146 578.258423,255.726242 577.113342,249.909607 
	C576.295898,245.757446 576.062683,241.436707 576.046204,237.189316 
	C575.951904,212.875015 576.000427,188.560150 576.000427,164.245483 
	C576.000427,162.618805 576.000427,160.992111 576.000427,158.994812 
	C570.869324,158.994812 566.120789,158.994812 561.200928,158.994812 
	C561.200928,153.195389 561.200928,147.792633 561.200928,141.776443 
	C566.170593,141.776443 570.948730,141.776443 576.330139,141.281616 
	C577.288940,136.805893 577.837646,132.830826 577.958069,128.842834 
	C578.179932,121.495926 576.459290,113.742439 582.941772,107.903168 
	C582.941772,107.903168 582.986511,107.983749 583.329163,107.974129 
	C587.250488,106.485199 590.829163,105.005890 595.070801,103.252541 
	C595.397400,105.453903 595.938843,107.482544 595.958923,109.516350 
	C596.051941,118.930222 595.912659,128.347214 596.094543,137.758469 
	C596.121826,139.170715 597.409851,140.558578 598.114624,141.957733 
z"/>
<path fill="#FFFFFF" opacity="1.000000" stroke="none" 
	d="
M705.113586,153.043015 
	C704.773926,153.822433 704.434265,154.601868 703.615601,155.741257 
	C700.687988,157.312195 700.143311,158.917282 702.113525,161.042938 
	C701.975037,161.638275 701.836487,162.233612 700.990784,162.922974 
	C698.352417,162.581116 696.395325,162.236053 694.494324,161.694183 
	C684.278076,158.781998 674.700195,158.813828 667.477051,168.097198 
	C663.183350,173.615601 659.613708,179.517899 662.113647,187.042938 
	C662.071655,188.101654 662.029724,189.160355 661.545837,190.690659 
	C660.403809,192.730484 659.125793,194.288300 659.097351,195.868637 
	C658.913269,206.088425 658.943359,216.313950 659.081604,226.535187 
	C659.097229,227.697937 660.222473,228.845688 660.833252,230.000397 
	C660.884460,230.446640 660.935669,230.892914 660.526855,231.776138 
	C659.882263,238.271652 659.685303,244.329956 659.569641,250.389816 
	C659.565857,250.585220 660.393311,250.796494 660.833252,251.000381 
	C660.884460,251.446640 660.935669,251.892914 660.527954,252.775482 
	C659.712463,258.085663 659.356018,262.959534 658.999512,267.833405 
	C653.308105,267.884979 647.616638,267.936554 641.462646,267.452698 
	C641.000000,243.596786 640.999939,220.276321 641.000000,196.955872 
	C641.000000,181.297852 640.881348,165.637787 641.149292,149.984344 
	C641.183105,148.008072 642.846313,144.832703 644.439392,144.313431 
	C653.369385,141.402542 656.998840,144.327774 657.000610,153.708511 
	C657.000916,155.374222 656.835693,157.065155 657.073120,158.696960 
	C657.236328,159.818436 657.963257,160.857895 658.438232,161.934021 
	C659.078369,162.026901 659.718567,162.119781 660.358704,162.212662 
	C661.891602,158.437073 663.424561,154.661484 664.957458,150.885895 
	C664.956909,150.528656 665.109131,150.257111 666.023560,150.022614 
	C667.539307,149.679047 668.526306,149.526321 669.338745,149.065704 
	C673.959045,146.446030 678.554199,143.780334 683.114136,141.057007 
	C683.854980,140.614578 684.377197,139.806061 685.000427,139.166748 
	C685.446655,139.115540 685.892944,139.064346 686.740173,139.436066 
	C688.833008,140.766403 690.447937,142.237213 692.230408,142.480545 
	C698.801575,143.377563 704.396973,145.139542 705.113586,153.043015 
z"/>
<path fill="#FFFFFF" opacity="1.000000" stroke="none" 
	d="
M517.046692,205.396423 
	C518.108521,205.451324 520.019409,205.499405 520.400635,206.287460 
	C523.182556,212.038208 525.814636,217.375336 523.980530,224.641388 
	C519.466370,242.524216 506.255188,248.110504 490.417725,251.046143 
	C480.724609,252.842865 471.334930,252.423264 462.127747,248.608841 
	C457.582642,246.725845 452.744415,245.534851 448.243744,243.563019 
	C437.114563,238.687057 431.193726,229.540802 429.200684,217.989700 
	C428.487915,213.858414 426.268677,212.373672 423.094299,212.339081 
	C418.953949,212.293991 414.802856,213.236725 410.592255,213.762405 
	C410.609131,228.233185 415.909607,240.137772 425.371094,249.497894 
	C434.551178,258.579651 446.065826,264.487457 459.224640,265.927460 
	C468.494995,266.941895 477.873016,268.124634 487.133545,267.704010 
	C494.267517,267.379913 501.441467,265.142365 508.338013,262.941895 
	C525.042419,257.612061 536.406311,246.375458 540.863342,229.429276 
	C545.558838,211.576843 538.642822,192.156784 521.663147,182.245499 
	C507.033600,173.706085 490.429932,171.687363 474.613403,167.027817 
	C465.453827,164.329437 456.372040,161.326447 447.377716,158.117355 
	C434.726685,153.603592 430.798248,137.148438 438.147308,125.095894 
	C443.811493,115.806633 452.697876,112.557465 462.232239,111.258667 
	C470.580078,110.121506 479.275726,110.292206 487.688782,111.149841 
	C503.160095,112.727005 516.085632,123.892014 518.143005,139.274414 
	C518.383301,141.071136 519.959351,142.689194 520.978088,144.753479 
	C517.333252,145.520782 516.661987,144.968430 516.023743,140.192535 
	C515.109802,133.354111 511.860901,127.698700 507.252716,122.794792 
	C501.017273,116.159103 492.633545,113.709114 484.109711,113.198486 
	C473.409576,112.557487 462.594330,112.227257 452.256989,116.861862 
	C442.085419,121.422127 436.021301,130.928986 436.893036,140.514389 
	C437.577332,148.038193 443.189575,155.161270 452.826996,157.946777 
	C469.776764,162.845779 486.911469,167.107880 503.844330,172.061813 
	C521.807251,177.317108 537.019836,186.053162 543.082886,205.495926 
	C547.936157,221.059372 544.218628,235.118134 534.756897,247.508621 
	C524.804138,260.542084 510.862732,267.113007 494.613739,269.032318 
	C478.210541,270.969849 462.121307,270.557770 446.257751,265.108002 
	C424.813507,257.741058 409.724731,239.316544 407.717743,216.305954 
	C407.222107,210.622925 409.092010,210.913025 412.930267,210.932526 
	C415.677002,210.946503 418.419128,210.208389 421.177673,210.035904 
	C423.830322,209.870071 426.501434,210.000046 428.793335,210.000046 
	C431.183777,216.559448 432.727966,223.376953 436.011230,229.216705 
	C441.274933,238.579056 450.376221,243.236755 460.516632,246.178070 
	C475.213928,250.441177 489.595398,250.132294 503.939484,244.599396 
	C520.095947,238.367401 527.844849,221.081818 517.046692,205.396423 
z"/>
<path fill="#FFFFFF" opacity="1.000000" stroke="none" 
	d="
M664.628967,151.023071 
	C663.424561,154.661484 661.891602,158.437073 660.358704,162.212662 
	C659.718567,162.119781 659.078369,162.026901 658.438232,161.934021 
	C657.963257,160.857895 657.236328,159.818436 657.073120,158.696960 
	C656.835693,157.065155 657.000916,155.374222 657.000610,153.708511 
	C656.998840,144.327774 653.369385,141.402542 644.439392,144.313431 
	C642.846313,144.832703 641.183105,148.008072 641.149292,149.984344 
	C640.881348,165.637787 641.000000,181.297852 641.000000,196.955872 
	C640.999939,220.276321 641.000000,243.596786 641.000366,267.375336 
	C640.333801,266.387329 639.088074,264.942780 639.084290,263.494965 
	C638.979187,223.239059 639.000000,182.982849 639.000000,142.363388 
	C645.572327,142.363388 652.088196,142.363388 658.976196,142.363388 
	C658.976196,147.758606 658.976196,153.130142 658.976196,159.259933 
	C661.060120,156.089737 662.680298,153.625000 664.628967,151.023071 
z"/>
<path fill="#FFFFFF" opacity="1.000000" stroke="none" 
	d="
M538.910522,137.581985 
	C537.899353,136.782272 536.392334,135.680420 536.118042,134.328506 
	C532.273010,115.374321 519.799072,104.450661 502.303955,98.819489 
	C495.363220,96.585442 487.840851,95.375931 480.549164,95.211182 
	C471.272125,95.001579 461.881134,95.804459 452.695618,97.199852 
	C447.782196,97.946274 443.216919,100.904922 438.452209,102.756264 
	C436.942444,103.342873 435.295868,103.577271 433.308624,103.956261 
	C440.423645,96.942879 450.011383,94.660027 459.608307,93.170624 
	C467.207764,91.991219 475.091187,91.627464 482.764221,92.146828 
	C498.830902,93.234314 514.007019,97.494728 525.741028,109.378502 
	C533.264954,116.998520 537.897583,126.316772 538.910522,137.581985 
z"/>
<path fill="#FFFFFF" opacity="1.000000" stroke="none" 
	d="
M426.638977,109.014496 
	C425.719391,111.648857 424.898315,114.710022 423.172302,117.124229 
	C414.959015,128.612244 415.196045,141.092560 419.414154,153.553833 
	C425.048126,170.197830 439.495117,176.314117 454.736298,180.936554 
	C460.268921,182.614502 465.961792,183.760727 471.509369,185.394592 
	C473.100830,185.863312 474.439941,187.188690 475.947601,188.477264 
	C458.226471,185.108948 440.246094,181.660736 426.310516,168.719269 
	C408.778137,152.437607 410.608398,124.595161 426.638977,109.014496 
z"/>
<path fill="#FFFFFF" opacity="1.000000" stroke="none" 
	d="
M826.435791,210.902069 
	C825.006165,201.815582 824.456238,192.721115 822.912537,183.798553 
	C820.743896,171.264282 814.363708,160.488800 804.675232,152.638214 
	C798.169617,147.366745 790.198059,143.512131 781.202881,142.873001 
	C778.458618,142.678024 775.826172,140.909637 773.071167,139.514282 
	C788.261414,139.979034 801.705566,144.882462 812.091370,156.606094 
	C820.920776,166.572830 825.752075,178.281601 826.972656,191.480362 
	C827.470886,196.867966 827.737671,202.280869 827.939819,207.688614 
	C827.980225,208.767868 827.247925,209.876007 826.435791,210.902069 
z"/>
<path fill="#FFFFFF" opacity="1.000000" stroke="none" 
	d="
M958.824402,267.895874 
	C951.728516,255.686127 952.459229,242.237701 952.109680,229.107346 
	C951.659119,212.177979 951.969910,195.227417 952.046631,178.286407 
	C952.054260,176.593826 952.710999,174.904190 953.449829,173.106476 
	C953.888794,192.970840 953.665283,212.948471 954.132629,232.909912 
	C954.329285,241.308197 955.826233,249.696213 957.077515,258.037079 
	C957.443420,260.476501 959.142822,262.690796 959.926025,265.107147 
	C960.181946,265.896515 959.471619,266.999054 958.824402,267.895874 
z"/>
<path fill="#FFFFFF" opacity="1.000000" stroke="none" 
	d="
M662.470825,186.856400 
	C659.613708,179.517899 663.183350,173.615601 667.477051,168.097198 
	C674.700195,158.813828 684.278076,158.781998 694.494324,161.694183 
	C696.395325,162.236053 698.352417,162.581116 700.699158,163.029572 
	C701.157837,166.128036 700.333618,166.480469 697.317993,165.161758 
	C690.801331,162.312027 684.015198,160.346512 676.868958,163.587524 
	C666.895020,168.110916 663.816772,176.731628 662.470825,186.856400 
z"/>
<path fill="#FFFFFF" opacity="1.000000" stroke="none" 
	d="
M598.061340,141.494446 
	C597.409851,140.558578 596.121826,139.170715 596.094543,137.758469 
	C595.912659,128.347214 596.051941,118.930222 595.958923,109.516350 
	C595.938843,107.482544 595.397400,105.453903 595.070801,103.252541 
	C590.829163,105.005890 587.250488,106.485199 583.288696,107.952057 
	C586.610229,105.466606 590.076965,102.424217 594.110596,100.738380 
	C596.455933,99.758148 598.108948,102.038811 598.062134,105.117897 
	C597.900452,115.756691 597.999634,126.399460 598.000366,137.040710 
	C598.000427,138.370850 598.005371,139.701004 598.061340,141.494446 
z"/>
<path fill="#FFFFFF" opacity="1.000000" stroke="none" 
	d="
M728.656738,157.169540 
	C727.210205,160.661011 725.640808,164.291580 723.585083,167.621964 
	C718.656189,175.606964 716.590027,184.336670 715.919128,193.572220 
	C715.764648,195.698944 714.595642,197.751968 713.530090,199.919556 
	C712.786194,183.804169 717.431091,169.385345 728.656738,157.169540 
z"/>
<path fill="#FFFFFF" opacity="1.000000" stroke="none" 
	d="
M769.571167,139.089264 
	C767.155579,140.419952 764.401794,142.438416 761.449768,142.789581 
	C750.589355,144.081451 741.509277,149.035736 732.965027,155.381287 
	C732.586121,155.662674 732.058960,155.744507 731.243042,155.938599 
	C735.533875,152.186554 739.652710,147.113281 744.957520,144.954529 
	C752.565308,141.858658 761.038391,140.889145 769.571167,139.089264 
z"/>
<path fill="#FFFFFF" opacity="1.000000" stroke="none" 
	d="
M478.415161,189.910904 
	C479.268890,189.257935 480.782043,187.908493 481.746338,188.225967 
	C492.224365,191.675735 502.677826,195.226715 512.971802,199.182724 
	C514.708008,199.849945 515.654663,202.571747 516.952942,204.719467 
	C507.280151,196.834717 495.180450,194.368134 483.458282,191.015884 
	C481.938446,190.581238 480.367126,190.326508 478.415161,189.910904 
z"/>
<path fill="#FFFFFF" opacity="1.000000" stroke="none" 
	d="
M813.847534,227.523041 
	C806.062073,228.207947 803.287903,234.077606 800.099121,240.138275 
	C796.685730,246.625961 791.032349,250.765991 783.161865,251.172333 
	C790.831177,247.298401 797.265259,242.102646 801.234192,234.238739 
	C802.519897,231.691376 803.621460,229.051117 804.710693,226.664902 
	C807.879211,226.840302 810.765686,227.000107 813.847534,227.523041 
z"/>
<path fill="#FFFFFF" opacity="1.000000" stroke="none" 
	d="
M660.910767,229.537384 
	C660.222473,228.845688 659.097229,227.697937 659.081604,226.535187 
	C658.943359,216.313950 658.913269,206.088425 659.097351,195.868637 
	C659.125793,194.288300 660.403809,192.730484 661.468628,191.080994 
	C661.551636,203.691299 661.269958,216.382828 660.910767,229.537384 
z"/>
<path fill="#FFFFFF" opacity="1.000000" stroke="none" 
	d="
M582.567383,107.950836 
	C576.459290,113.742439 578.179932,121.495926 577.958069,128.842834 
	C577.837646,132.830826 577.288940,136.805893 576.550049,140.893524 
	C576.111206,132.042236 576.127991,123.082939 575.969238,114.126755 
	C575.891418,109.735764 579.650452,109.557655 582.567383,107.950836 
z"/>
<path fill="#FFFFFF" opacity="1.000000" stroke="none" 
	d="
M859.633057,155.019501 
	C858.319275,158.557831 856.392822,162.133362 855.122803,165.928558 
	C853.816772,169.831360 850.203918,173.673782 853.951782,178.481628 
	C849.818848,179.453201 847.661438,178.461594 849.981140,173.835678 
	C853.101196,167.613632 856.200500,161.381149 859.633057,155.019501 
z"/>
<path fill="#FFFFFF" opacity="1.000000" stroke="none" 
	d="
M705.447449,152.888245 
	C704.396973,145.139542 698.801575,143.377563 692.230408,142.480545 
	C690.447937,142.237213 688.833008,140.766403 687.070435,139.512878 
	C691.415222,140.335632 695.904724,141.282288 700.229004,142.724579 
	C706.982788,144.977234 706.674500,145.963547 705.447449,152.888245 
z"/>
<path fill="#FFFFFF" opacity="1.000000" stroke="none" 
	d="
M684.599487,139.089508 
	C684.377197,139.806061 683.854980,140.614578 683.114136,141.057007 
	C678.554199,143.780334 673.959045,146.446030 669.338745,149.065704 
	C668.526306,149.526321 667.539307,149.679047 666.259399,149.965759 
	C669.886292,142.789215 676.792664,140.482803 684.599487,139.089508 
z"/>
<path fill="#FFFFFF" opacity="1.000000" stroke="none" 
	d="
M660.910767,250.537750 
	C660.393311,250.796494 659.565857,250.585220 659.569641,250.389816 
	C659.685303,244.329956 659.882263,238.271652 660.449951,232.106430 
	C660.884949,238.024872 660.936584,244.049988 660.910767,250.537750 
z"/>
<path fill="#FFFFFF" opacity="1.000000" stroke="none" 
	d="
M659.435181,267.902222 
	C659.356018,262.959534 659.712463,258.085663 660.451050,253.105774 
	C660.512451,257.990204 660.191650,262.980621 659.435181,267.902222 
z"/>
<path fill="#FFFFFF" opacity="1.000000" stroke="none" 
	d="
M523.423706,144.910370 
	C525.762268,142.176834 528.652039,141.024155 532.006104,144.456970 
	C529.358887,144.884674 526.603333,144.936111 523.423706,144.910370 
z"/>
<path fill="#FFFFFF" opacity="1.000000" stroke="none" 
	d="
M702.444763,160.891479 
	C700.143311,158.917282 700.687988,157.312195 703.484863,156.050400 
	C703.480774,157.579727 703.128418,159.159866 702.444763,160.891479 
z"/>
<path fill="#FFFFFF" opacity="1.000000" stroke="none" 
	d="
M536.367188,143.910339 
	C536.813843,142.574402 537.628174,141.315521 538.779480,140.008133 
	C539.067261,141.742538 540.082825,144.155045 536.367188,143.910339 
z"/>
<path fill="#FFFFFF" opacity="1.000000" stroke="none" 
	d="
M432.612396,103.949066 
	C432.168701,104.592133 431.395630,105.281189 430.254150,105.963898 
	C430.684814,105.303383 431.483917,104.649216 432.612396,103.949066 
z"/>
<path fill="#000000" opacity="1.000000" stroke="none" 
	d="
M119.749413,148.663483 
	C127.730164,136.317062 135.095963,123.998398 143.382111,112.333488 
	C150.063873,102.927147 157.657745,94.136475 165.254379,85.428055 
	C168.314896,81.919624 172.297745,79.124886 176.154160,76.424156 
	C181.228073,72.870758 186.248154,73.423004 191.471237,76.884911 
	C201.491699,83.526558 209.147842,92.448044 215.911423,102.072968 
	C226.844925,117.631874 238.133057,133.054230 247.624222,149.485703 
	C259.665131,170.331375 270.439484,191.942444 281.014069,213.587875 
	C286.834808,225.502518 291.711029,237.968872 295.917603,250.552689 
	C299.161865,260.257629 301.364075,270.441925 302.754944,280.587799 
	C303.633575,286.997070 300.055847,292.401184 293.929504,295.601807 
	C283.398804,301.103363 272.090424,304.377625 260.453583,305.864410 
	C243.277023,308.058960 226.010300,309.759033 208.730576,310.870575 
	C193.853271,311.827576 178.882751,312.309296 163.992828,311.815033 
	C149.795670,311.343750 135.655502,309.269836 121.479034,308.028900 
	C107.414841,306.797760 93.759750,303.864655 80.481895,299.028473 
	C69.855957,295.158142 63.811649,289.216797 64.371849,281.437866 
	C64.843681,274.885864 66.016708,268.305389 67.633789,261.928864 
	C73.944359,237.044571 84.734306,213.918533 96.433205,191.228149 
	C103.787094,176.965073 111.809517,163.046692 119.749413,148.663483 
M239.999680,241.365021 
	C239.682297,238.637939 239.689362,235.825150 238.995132,233.197647 
	C234.359955,215.654800 225.796112,199.822891 216.629715,184.398407 
	C209.256317,171.991028 201.418732,159.769760 190.481216,149.964890 
	C186.002792,145.950226 180.875977,145.690063 176.674973,149.923401 
	C172.970612,153.656281 169.195694,157.396133 166.024231,161.567963 
	C149.291901,183.578171 135.886795,207.395569 127.560249,233.894455 
	C124.610878,243.280685 127.387337,250.214905 135.930740,251.827240 
	C148.024384,254.109589 160.275757,255.955795 172.541489,256.799072 
	C182.211823,257.463867 192.039337,256.724823 201.735046,255.889587 
	C211.408371,255.056290 221.052902,253.599670 230.618454,251.900604 
	C237.593704,250.661636 239.950195,247.773666 239.999680,241.365021 
z"/>
<path fill="#000000" opacity="1.000000" stroke="none" 
	d="
M875.042297,247.885483 
	C867.765808,239.463287 866.405518,232.404770 872.116150,223.748276 
	C874.411682,220.268646 879.028259,217.266388 883.138306,216.232285 
	C896.238098,212.936340 909.605408,210.711731 922.847168,207.966034 
	C925.823792,207.348816 928.710205,206.296051 931.881592,205.372910 
	C932.339478,216.010864 931.967529,226.416092 926.658569,236.639343 
	C909.525574,254.177307 895.471497,257.120056 875.042297,247.885483 
z"/>
<path fill="#FFFFFF" opacity="1.000000" stroke="none" 
	d="
M875.064453,248.249176 
	C895.471497,257.120056 909.525574,254.177307 926.634277,237.018295 
	C927.530273,242.391251 922.774597,244.568115 919.558716,246.602676 
	C907.044617,254.519684 893.551025,257.968872 879.068604,251.952988 
	C877.542175,251.318909 876.404541,249.748718 875.064453,248.249176 
z"/>
<path fill="#000000" opacity="1.000000" stroke="none" 
	d="
M804.166748,189.000381 
	C804.261963,189.912537 804.357239,190.824692 804.465759,191.863724 
	C781.783752,191.863724 759.092896,191.863724 736.619995,191.259583 
	C738.621033,184.911575 739.589417,178.739609 742.340637,173.504547 
	C750.420410,158.129883 770.450195,154.113708 784.435547,160.477173 
	C790.309998,163.150101 794.824646,168.811386 799.957458,173.114151 
	C800.077209,173.690613 800.196899,174.267090 800.654297,175.343353 
	C802.050293,180.228897 803.108521,184.614639 804.166748,189.000381 
z"/>
<path fill="#FFFFFF" opacity="1.000000" stroke="none" 
	d="
M799.965454,172.736603 
	C794.824646,168.811386 790.309998,163.150101 784.435547,160.477173 
	C770.450195,154.113708 750.420410,158.129883 742.340637,173.504547 
	C739.589417,178.739609 738.621033,184.911575 736.476929,190.848129 
	C735.850281,188.858734 735.040771,186.580368 735.407288,184.510178 
	C737.773621,171.143799 745.939514,161.878098 758.303955,157.656479 
	C771.946594,152.998474 786.976929,154.454727 797.845642,167.476791 
	C798.937561,168.784897 799.282166,170.716690 799.965454,172.736603 
z"/>
<path fill="#FFFFFF" opacity="1.000000" stroke="none" 
	d="
M804.518860,188.916687 
	C803.108521,184.614639 802.050293,180.228897 800.938721,175.442657 
	C804.127686,177.584152 806.326660,185.193253 804.518860,188.916687 
z"/>
<path fill="#F9F9F9" opacity="1.000000" stroke="none" 
	d="
M239.999695,241.817810 
	C239.950195,247.773666 237.593704,250.661636 230.618454,251.900604 
	C221.052902,253.599670 211.408371,255.056290 201.735046,255.889587 
	C192.039337,256.724823 182.211823,257.463867 172.541489,256.799072 
	C160.275757,255.955795 148.024384,254.109589 135.930740,251.827240 
	C127.387337,250.214905 124.610878,243.280685 127.560249,233.894455 
	C135.886795,207.395569 149.291901,183.578171 166.024231,161.567963 
	C169.195694,157.396133 172.970612,153.656281 176.674973,149.923401 
	C180.875977,145.690063 186.002792,145.950226 190.481216,149.964890 
	C201.418732,159.769760 209.256317,171.991028 216.629715,184.398407 
	C225.796112,199.822891 234.359955,215.654800 238.995132,233.197647 
	C239.689362,235.825150 239.682297,238.637939 239.999695,241.817810 
z"/>
</svg>